<?xml version="1.0" encoding="UTF-8"?>
<svg id="Layer_1" data-name="Layer 1" xmlns="http://www.w3.org/2000/svg" viewBox="0 0 48 48">
  <defs>
    <style>
      .cls-1 {
        fill-rule: evenodd;
      }
    </style>
  </defs>
  <path class="cls-1" d="M24.02.89C11.01.89.5,11.48.5,24.59c0,10.47,6.74,19.34,16.08,22.48,1.17.24,1.6-.51,1.6-1.14,0-.55-.04-2.43-.04-4.39-6.54,1.41-7.9-2.82-7.9-2.82-1.05-2.75-2.61-3.45-2.61-3.45-2.14-1.45.16-1.45.16-1.45,2.38.16,3.62,2.43,3.62,2.43,2.1,3.61,5.49,2.59,6.85,1.96.2-1.53.82-2.59,1.48-3.18-5.22-.55-10.71-2.59-10.71-11.69,0-2.59.93-4.71,2.41-6.35-.23-.59-1.05-3.02.24-6.27,0,0,1.98-.63,6.46,2.43,1.92-.52,3.89-.78,5.88-.78,1.99,0,4.01.27,5.88.78,4.48-3.06,6.46-2.43,6.46-2.43,1.29,3.26.47,5.68.23,6.27,1.52,1.65,2.41,3.76,2.41,6.35,0,9.1-5.49,11.1-10.75,11.69.86.75,1.6,2.16,1.6,4.39,0,3.18-.04,5.73-.04,6.51,0,.63.43,1.38,1.6,1.14,9.63-3.26,16.1-12.31,16.08-22.48.04-13.1-10.51-23.69-23.48-23.69Z"/>
</svg>