<svg xmlns="http://www.w3.org/2000/svg" version="1.1" xmlns:xlink="http://www.w3.org/1999/xlink" xmlns:svgjs="http://svgjs.dev/svgjs" width="256" height="256"><svg width="256" height="256" viewBox="0 0 256 256" fill="none" xmlns="http://www.w3.org/2000/svg">
<path d="M161.547 170.078C163.576 170.078 165.315 169.557 166.764 168.513C168.272 167.412 169.46 165.528 170.33 162.861C171.257 160.137 171.779 156.398 171.895 151.644L172.59 128.167C172.648 126.834 172.271 125.674 171.46 124.689C170.648 123.703 169.576 122.95 168.243 122.428C166.909 121.848 165.489 121.559 163.982 121.559C161.605 121.559 159.46 122.602 157.547 124.689C155.634 126.718 154.127 129.703 153.026 133.645C151.982 137.529 151.461 142.282 151.461 147.905C151.461 152.485 151.867 156.427 152.678 159.731C153.548 163.035 154.736 165.586 156.243 167.383C157.808 169.18 159.576 170.078 161.547 170.078ZM110.071 148.949C110.071 138.978 112.042 130.428 115.984 123.298C119.984 116.168 125.346 110.718 132.07 106.951C138.853 103.125 146.388 101.212 154.678 101.212C157.229 101.212 159.344 101.444 161.026 101.907C162.765 102.371 164.098 102.806 165.025 103.212C166.185 103.675 167.17 104.168 167.982 104.69C168.793 105.211 169.634 105.472 170.503 105.472C171.199 105.472 171.605 105.096 171.721 104.342C171.837 103.588 171.895 102.835 171.895 102.081V101.559C171.895 100.4 171.837 99.2697 171.721 98.1683C171.663 97.0089 171.402 95.9075 170.938 94.8641C170.474 93.8206 169.489 92.9801 167.982 92.3424C167.228 92.0526 166.475 91.9077 165.721 91.9077C164.967 91.8497 164.04 91.6468 162.939 91.299C162.185 91.0671 161.489 90.5454 160.852 89.7339C160.272 88.9223 159.982 87.647 159.982 85.9079C159.982 84.0529 160.475 82.4008 161.46 80.9516C162.504 79.4444 164.098 78.2561 166.243 77.3865C170.648 75.6475 175.344 74.1693 180.329 72.9519C185.314 71.6766 190.039 70.7201 194.502 70.0825C199.024 69.3869 202.734 69.0391 205.632 69.0391C208.879 69.0391 210.502 70.2854 210.502 72.778C210.502 74.9808 210.444 77.5025 210.328 80.3429C210.27 83.1254 210.183 87.1253 210.067 92.3424C210.009 97.5596 209.98 104.893 209.98 114.342V139.558C209.98 144.601 210.038 148.978 210.154 152.688C210.27 156.34 210.328 159.18 210.328 161.209C210.328 162.948 210.531 164.571 210.937 166.078C211.4 167.528 212.183 168.6 213.284 169.296C214.618 170.107 215.603 170.571 216.241 170.687C216.878 170.745 217.777 171.064 218.936 171.643C220.443 172.397 221.371 173.267 221.719 174.252C222.124 175.18 222.327 176.426 222.327 177.991C222.327 179.266 221.69 180.658 220.414 182.165C219.197 183.672 217.168 185.266 214.328 186.947C209.98 189.498 204.966 191.469 199.285 192.86C193.604 194.251 188.01 194.947 182.503 194.947C179.489 194.947 177.489 194.744 176.503 194.338C175.576 193.99 175.054 193.005 174.938 191.382C174.88 190.802 174.822 190.135 174.764 189.382C174.764 188.628 174.764 187.875 174.764 187.121C174.764 185.092 173.924 184.078 172.242 184.078C171.663 184.078 171.141 184.31 170.677 184.773C170.214 185.237 169.46 185.933 168.417 186.86C165.402 189.527 162.562 191.411 159.895 192.512C157.229 193.672 153.49 194.251 148.678 194.251C141.316 194.251 134.708 192.135 128.853 187.904C123.056 183.672 118.477 178.107 115.114 171.209C111.752 164.31 110.071 156.89 110.071 148.949Z" fill="black"></path>
<path d="M79.2586 152.514C79.2586 157.093 80.0412 160.658 81.6063 163.209C83.2294 165.702 85.5772 166.948 88.6495 166.948C90.2147 166.948 91.6639 166.629 92.9972 165.992C94.3304 165.354 95.4318 164.716 96.3014 164.079C96.8231 163.673 97.3448 163.354 97.8665 163.122C98.3882 162.832 98.9389 162.687 99.5186 162.687C100.852 162.687 102.214 163.731 103.605 165.818C105.055 167.847 105.779 170.049 105.779 172.426C105.779 174.687 104.765 177.064 102.736 179.556C100.707 181.991 98.0114 184.281 94.6493 186.425C91.2871 188.512 87.6061 190.222 83.6062 191.556C79.6644 192.889 75.7225 193.556 71.7807 193.556C62.9694 193.556 56.332 192.106 51.8684 189.208C47.4628 186.31 44.3615 182.715 42.5645 178.426C41.3471 175.527 40.5646 172.455 40.2168 169.209C39.8689 165.905 39.695 162.658 39.695 159.47V121.993C39.695 121.124 39.5501 120.486 39.2603 120.08C39.0284 119.675 38.4197 119.472 37.4343 119.472H28.4781C27.0289 119.472 26.0724 119.269 25.6087 118.863C25.2029 118.399 25 117.704 25 116.776C25 115.443 25 113.965 25 112.342C25.058 110.661 25.1159 109.414 25.1739 108.603C25.2319 107.965 25.3188 107.414 25.4348 106.951C25.6087 106.487 26.1304 105.965 26.9999 105.385L63.5201 80.8647C64.5636 80.169 65.7229 79.5604 66.9982 79.0387C68.3315 78.5169 70.1575 78.2561 72.4763 78.2561C74.737 78.2561 76.592 78.8358 78.0413 79.9951C79.5484 81.0965 80.302 82.9805 80.302 85.6471C80.302 87.3282 80.2731 89.0382 80.2151 90.7773C80.1571 92.5163 80.0991 94.0815 80.0412 95.4727C79.9832 96.864 79.9542 97.8784 79.9542 98.5161C79.9542 99.4436 80.1281 100.023 80.4759 100.255C80.8238 100.429 81.4614 100.516 82.3889 100.516H100.127C101.982 100.516 103.258 100.719 103.953 101.125C104.707 101.472 105.084 102.226 105.084 103.385C105.084 103.559 105.055 104.226 104.997 105.385L104.475 115.646C104.359 117.965 103.837 119.327 102.91 119.733C101.982 120.138 100.533 120.341 98.5621 120.341H80.9977C79.8383 120.341 79.2586 120.921 79.2586 122.08V152.514Z" fill="black"></path>
<path d="M169.547 162.039C171.576 162.039 173.315 161.518 174.764 160.474C176.272 159.373 177.46 157.489 178.33 154.822C179.257 152.098 179.779 148.359 179.895 143.605L180.59 120.128C180.648 118.795 180.271 117.635 179.46 116.65C178.648 115.664 177.576 114.911 176.243 114.389C174.909 113.809 173.489 113.52 171.982 113.52C169.605 113.52 167.46 114.563 165.547 116.65C163.634 118.679 162.127 121.664 161.026 125.606C159.982 129.49 159.461 134.243 159.461 139.866C159.461 144.446 159.867 148.388 160.678 151.692C161.548 154.996 162.736 157.547 164.243 159.344C165.808 161.141 167.576 162.039 169.547 162.039ZM118.071 140.91C118.071 130.939 120.042 122.389 123.984 115.259C127.984 108.128 133.346 102.679 140.07 98.9115C146.853 95.0855 154.388 93.1726 162.678 93.1726C165.229 93.1726 167.344 93.4044 169.026 93.8682C170.765 94.3319 172.098 94.7667 173.025 95.1725C174.185 95.6362 175.17 96.129 175.982 96.6507C176.793 97.1724 177.634 97.4333 178.503 97.4333C179.199 97.4333 179.605 97.0565 179.721 96.3029C179.837 95.5493 179.895 94.7957 179.895 94.0421V93.5204C179.895 92.361 179.837 91.2306 179.721 90.1292C179.663 88.9698 179.402 87.8684 178.938 86.825C178.474 85.7816 177.489 84.941 175.982 84.3034C175.228 84.0135 174.475 83.8686 173.721 83.8686C172.967 83.8106 172.04 83.6078 170.939 83.2599C170.185 83.0281 169.489 82.5063 168.852 81.6948C168.272 80.8832 167.982 79.6079 167.982 77.8689C167.982 76.0139 168.475 74.3618 169.46 72.9125C170.504 71.4054 172.098 70.217 174.243 69.3475C178.648 67.6084 183.344 66.1302 188.329 64.9129C193.314 63.6376 198.039 62.6811 202.502 62.0434C207.024 61.3478 210.734 61 213.632 61C216.879 61 218.502 62.2463 218.502 64.739C218.502 66.9418 218.444 69.4634 218.328 72.3039C218.27 75.0864 218.183 79.0862 218.067 84.3034C218.009 89.5205 217.98 96.8536 217.98 106.302V131.519C217.98 136.562 218.038 140.939 218.154 144.649C218.27 148.301 218.328 151.141 218.328 153.17C218.328 154.909 218.531 156.532 218.937 158.039C219.4 159.489 220.183 160.561 221.284 161.257C222.618 162.068 223.603 162.532 224.241 162.648C224.878 162.706 225.777 163.025 226.936 163.604C228.443 164.358 229.371 165.228 229.719 166.213C230.124 167.14 230.327 168.387 230.327 169.952C230.327 171.227 229.69 172.619 228.414 174.126C227.197 175.633 225.168 177.227 222.328 178.908C217.98 181.459 212.966 183.43 207.285 184.821C201.604 186.212 196.01 186.908 190.503 186.908C187.489 186.908 185.489 186.705 184.503 186.299C183.576 185.951 183.054 184.966 182.938 183.343C182.88 182.763 182.822 182.096 182.764 181.343C182.764 180.589 182.764 179.836 182.764 179.082C182.764 177.053 181.924 176.039 180.242 176.039C179.663 176.039 179.141 176.271 178.677 176.734C178.214 177.198 177.46 177.894 176.417 178.821C173.402 181.488 170.562 183.372 167.895 184.473C165.229 185.632 161.49 186.212 156.678 186.212C149.316 186.212 142.708 184.096 136.853 179.865C131.056 175.633 126.477 170.068 123.114 163.17C119.752 156.271 118.071 148.851 118.071 140.91Z" fill="#FF3399"></path>
<path d="M87.2586 144.475C87.2586 149.054 88.0412 152.619 89.6063 155.17C91.2294 157.663 93.5772 158.909 96.6495 158.909C98.2147 158.909 99.6639 158.59 100.997 157.952C102.33 157.315 103.432 156.677 104.301 156.04C104.823 155.634 105.345 155.315 105.867 155.083C106.388 154.793 106.939 154.648 107.519 154.648C108.852 154.648 110.214 155.692 111.605 157.779C113.055 159.807 113.779 162.01 113.779 164.387C113.779 166.648 112.765 169.024 110.736 171.517C108.707 173.952 106.011 176.242 102.649 178.386C99.2871 180.473 95.6061 182.183 91.6062 183.517C87.6644 184.85 83.7225 185.517 79.7807 185.517C70.9694 185.517 64.332 184.067 59.8684 181.169C55.4628 178.27 52.3615 174.676 50.5645 170.387C49.3471 167.488 48.5646 164.416 48.2168 161.17C47.8689 157.866 47.695 154.619 47.695 151.431V113.954C47.695 113.085 47.5501 112.447 47.2603 112.041C47.0284 111.636 46.4197 111.433 45.4343 111.433H36.4781C35.0289 111.433 34.0724 111.23 33.6087 110.824C33.2029 110.36 33 109.665 33 108.737C33 107.404 33 105.926 33 104.303C33.058 102.621 33.1159 101.375 33.1739 100.564C33.2319 99.9259 33.3188 99.3752 33.4348 98.9115C33.6087 98.4477 34.1304 97.926 34.9999 97.3463L71.5201 72.8256C72.5636 72.13 73.7229 71.5213 74.9982 70.9996C76.3315 70.4779 78.1575 70.217 80.4763 70.217C82.737 70.217 84.592 70.7967 86.0413 71.9561C87.5484 73.0575 88.302 74.9414 88.302 77.608C88.302 79.2891 88.2731 80.9992 88.2151 82.7382C88.1571 84.4773 88.0991 86.0424 88.0412 87.4337C87.9832 88.8249 87.9542 89.8394 87.9542 90.477C87.9542 91.4045 88.1281 91.9842 88.4759 92.2161C88.8238 92.39 89.4614 92.4769 90.3889 92.4769H108.127C109.982 92.4769 111.258 92.6798 111.953 93.0856C112.707 93.4334 113.084 94.187 113.084 95.3464C113.084 95.5203 113.055 96.1869 112.997 97.3463L112.475 107.607C112.359 109.925 111.837 111.288 110.91 111.694C109.982 112.099 108.533 112.302 106.562 112.302H88.9977C87.8383 112.302 87.2586 112.882 87.2586 114.041V144.475Z" fill="#FF3399"></path>
</svg><style>@media (prefers-color-scheme: light) { :root { filter: none; } }
@media (prefers-color-scheme: dark) { :root { filter: none; } }
</style></svg>