<svg width="296" height="61" viewBox="0 0 296 61" fill="none" xmlns="http://www.w3.org/2000/svg">
<g filter="url(#filter0_d_103_1825)">
<mask id="path-1-outside-1_103_1825" maskUnits="userSpaceOnUse" x="5" y="5" width="289" height="50" fill="black">
<rect fill="white" x="5" y="5" width="289" height="50"/>
<path d="M8 20.008L8.096 10.936H37.04L37.088 20.008H32.624L31.808 13.768H27.392C27.36 15.72 27.328 17.704 27.296 19.72C27.296 21.736 27.296 23.768 27.296 25.816V27.304C27.296 29.256 27.296 31.208 27.296 33.16C27.296 35.112 27.312 37.064 27.344 39.016L31.184 39.4V42.232H13.952V39.4L17.744 39.016C17.776 37.096 17.792 35.16 17.792 33.208C17.792 31.256 17.792 29.304 17.792 27.352V25.816C17.792 23.832 17.792 21.832 17.792 19.816C17.792 17.8 17.76 15.784 17.696 13.768H13.328L12.512 20.008H8Z"/>
<path d="M37.1574 42.232V39.784L39.4614 39.256C39.4934 38.104 39.5094 36.888 39.5094 35.608C39.5094 34.296 39.5094 33.144 39.5094 32.152V29.128C39.5094 28.232 39.4934 27.512 39.4614 26.968C39.4614 26.424 39.4454 25.928 39.4134 25.48C39.4134 25 39.3974 24.44 39.3654 23.8L36.7734 23.368V21.4L47.3814 18.088L48.2454 18.616L48.6294 24.184C49.2694 22.104 50.1814 20.568 51.3654 19.576C52.5814 18.584 53.7654 18.088 54.9174 18.088C56.1014 18.088 57.0934 18.44 57.8934 19.144C58.7254 19.816 59.2214 20.888 59.3814 22.36C59.3174 23.64 58.9334 24.648 58.2294 25.384C57.5254 26.088 56.6934 26.44 55.7334 26.44C54.2614 26.44 52.9174 25.56 51.7014 23.8L51.4614 23.464C50.8854 24.104 50.3094 24.936 49.7334 25.96C49.1894 26.984 48.8214 28.04 48.6294 29.128V32.152C48.6294 33.08 48.6294 34.168 48.6294 35.416C48.6294 36.664 48.6454 37.848 48.6774 38.968L52.4214 39.784V42.232H37.1574Z"/>
<path d="M60.6965 42.232V39.784L62.8565 39.304C62.8885 38.12 62.9045 36.888 62.9045 35.608C62.9045 34.296 62.9045 33.144 62.9045 32.152V29.848C62.9045 28.536 62.8885 27.448 62.8565 26.584C62.8565 25.688 62.8245 24.76 62.7605 23.8L60.1685 23.368V21.4L71.3045 18.088L72.1685 18.616L72.0245 25.768V32.152C72.0245 33.144 72.0245 34.312 72.0245 35.656C72.0245 36.968 72.0405 38.2 72.0725 39.352L74.0885 39.784V42.232H60.6965ZM67.3685 15.256C66.1525 15.256 65.1125 14.872 64.2485 14.104C63.3845 13.304 62.9525 12.312 62.9525 11.128C62.9525 9.912 63.3845 8.92 64.2485 8.152C65.1125 7.384 66.1525 7 67.3685 7C68.5845 7 69.6245 7.384 70.4885 8.152C71.3525 8.92 71.7845 9.912 71.7845 11.128C71.7845 12.312 71.3525 13.304 70.4885 14.104C69.6245 14.872 68.5845 15.256 67.3685 15.256Z"/>
<path d="M88.403 43C86.227 43 84.195 42.552 82.307 41.656C80.419 40.728 78.883 39.352 77.699 37.528C76.547 35.704 75.971 33.4 75.971 30.616C75.971 27.96 76.579 25.704 77.795 23.848C79.011 21.96 80.659 20.536 82.739 19.576C84.819 18.584 87.139 18.088 89.699 18.088C91.491 18.088 93.059 18.424 94.403 19.096C95.747 19.768 96.803 20.664 97.571 21.784C98.371 22.872 98.803 24.072 98.867 25.384C98.259 27.24 97.043 28.168 95.219 28.168C94.227 28.168 93.315 27.784 92.483 27.016C91.651 26.248 91.187 24.808 91.091 22.696L90.995 20.68H90.803C90.067 20.68 89.283 20.968 88.451 21.544C87.651 22.088 86.963 23.016 86.387 24.328C85.843 25.608 85.571 27.352 85.571 29.56C85.571 32.216 86.131 34.264 87.251 35.704C88.403 37.112 89.939 37.816 91.859 37.816C92.915 37.816 93.827 37.608 94.595 37.192C95.363 36.744 96.083 36.2 96.755 35.56L98.627 37.384C97.603 39.336 96.211 40.76 94.451 41.656C92.691 42.552 90.675 43 88.403 43Z"/>
<path d="M112.963 20.68C112.227 20.68 111.603 21.224 111.091 22.312C110.579 23.4 110.291 25.432 110.227 28.408H112.483C113.635 28.408 114.403 28.184 114.787 27.736C115.203 27.256 115.411 26.408 115.411 25.192C115.411 23.528 115.155 22.36 114.643 21.688C114.163 21.016 113.603 20.68 112.963 20.68ZM113.107 43C110.707 43 108.563 42.504 106.675 41.512C104.819 40.52 103.347 39.096 102.259 37.24C101.171 35.352 100.627 33.096 100.627 30.472C100.627 28.392 100.995 26.584 101.731 25.048C102.467 23.512 103.459 22.232 104.707 21.208C105.955 20.152 107.347 19.368 108.883 18.856C110.419 18.344 111.971 18.088 113.539 18.088C115.843 18.088 117.747 18.568 119.251 19.528C120.787 20.456 121.939 21.72 122.707 23.32C123.475 24.888 123.859 26.648 123.859 28.6C123.859 29.112 123.843 29.56 123.811 29.944C123.779 30.296 123.715 30.696 123.619 31.144H110.275C110.531 33.48 111.219 35.176 112.339 36.232C113.491 37.288 114.771 37.816 116.179 37.816C117.395 37.816 118.435 37.608 119.299 37.192C120.195 36.744 120.979 36.2 121.651 35.56L123.523 37.384C122.499 39.336 121.091 40.76 119.299 41.656C117.539 42.552 115.475 43 113.107 43Z"/>
<path d="M132.037 43C130.725 43 129.605 42.552 128.677 41.656C127.781 40.76 127.333 39.672 127.333 38.392C127.333 37.08 127.781 35.96 128.677 35.032C129.605 34.104 130.725 33.64 132.037 33.64C133.349 33.64 134.453 34.104 135.349 35.032C136.277 35.96 136.741 37.08 136.741 38.392C136.741 39.672 136.277 40.76 135.349 41.656C134.453 42.552 133.349 43 132.037 43Z"/>
<path d="M153.436 27.304C153.436 29.288 153.436 31.288 153.436 33.304C153.468 35.288 153.499 37.272 153.531 39.256H154.204C156.572 39.256 158.459 38.152 159.867 35.944C161.307 33.736 162.027 30.6 162.027 26.536C162.027 22.44 161.307 19.32 159.867 17.176C158.427 15 156.524 13.912 154.156 13.912H153.531C153.499 15.864 153.468 17.832 153.436 19.816C153.436 21.8 153.436 23.8 153.436 25.816V27.304ZM140.572 13.768V10.936H154.876C158.428 10.936 161.451 11.576 163.947 12.856C166.443 14.136 168.348 15.944 169.66 18.28C170.972 20.584 171.628 23.304 171.628 26.44C171.628 29.736 170.924 32.568 169.516 34.936C168.108 37.272 166.091 39.08 163.467 40.36C160.843 41.608 157.707 42.232 154.059 42.232H140.572V39.4L143.883 39.064C143.915 37.144 143.932 35.208 143.932 33.256C143.932 31.272 143.932 29.304 143.932 27.352V25.816C143.932 23.864 143.932 21.912 143.932 19.96C143.932 18.008 143.915 16.056 143.883 14.104L140.572 13.768Z"/>
<path d="M186.37 20.68C185.634 20.68 185.009 21.224 184.497 22.312C183.985 23.4 183.697 25.432 183.633 28.408H185.889C187.041 28.408 187.809 28.184 188.193 27.736C188.609 27.256 188.818 26.408 188.818 25.192C188.818 23.528 188.561 22.36 188.049 21.688C187.569 21.016 187.01 20.68 186.37 20.68ZM186.514 43C184.114 43 181.969 42.504 180.081 41.512C178.225 40.52 176.753 39.096 175.665 37.24C174.577 35.352 174.033 33.096 174.033 30.472C174.033 28.392 174.401 26.584 175.137 25.048C175.873 23.512 176.865 22.232 178.113 21.208C179.361 20.152 180.754 19.368 182.29 18.856C183.826 18.344 185.377 18.088 186.945 18.088C189.249 18.088 191.154 18.568 192.658 19.528C194.194 20.456 195.345 21.72 196.113 23.32C196.881 24.888 197.266 26.648 197.266 28.6C197.266 29.112 197.25 29.56 197.217 29.944C197.185 30.296 197.121 30.696 197.025 31.144H183.682C183.938 33.48 184.625 35.176 185.745 36.232C186.897 37.288 188.177 37.816 189.585 37.816C190.801 37.816 191.842 37.608 192.706 37.192C193.602 36.744 194.385 36.2 195.057 35.56L196.93 37.384C195.906 39.336 194.498 40.76 192.706 41.656C190.946 42.552 188.882 43 186.514 43Z"/>
<path d="M208.131 43C204.803 43 201.859 42.216 199.299 40.648L199.539 34.504H203.907L204.675 39.496C205.219 39.72 205.779 39.896 206.355 40.024C206.931 40.12 207.523 40.168 208.131 40.168C209.347 40.168 210.291 39.976 210.963 39.592C211.635 39.208 211.971 38.568 211.971 37.672C211.971 37.032 211.715 36.456 211.203 35.944C210.723 35.432 209.683 34.968 208.083 34.552L205.347 33.832C203.459 33.32 202.019 32.424 201.027 31.144C200.035 29.832 199.539 28.248 199.539 26.392C199.539 23.992 200.451 22.008 202.275 20.44C204.131 18.872 206.787 18.088 210.243 18.088C211.715 18.088 213.075 18.248 214.323 18.568C215.603 18.888 216.899 19.368 218.211 20.008L217.827 25.432H213.411L212.355 21.16C212.035 21.096 211.683 21.048 211.299 21.016C210.947 20.952 210.515 20.92 210.003 20.92C209.107 20.92 208.339 21.128 207.699 21.544C207.091 21.928 206.787 22.536 206.787 23.368C206.787 23.88 207.011 24.376 207.459 24.856C207.907 25.336 208.963 25.8 210.627 26.248L213.315 26.968C215.555 27.576 217.155 28.52 218.115 29.8C219.107 31.08 219.603 32.664 219.603 34.552C219.603 37.368 218.563 39.48 216.483 40.888C214.435 42.296 211.651 43 208.131 43Z"/>
<path d="M221.572 42.232V39.784L223.732 39.304C223.764 38.12 223.779 36.888 223.779 35.608C223.779 34.296 223.779 33.144 223.779 32.152V29.848C223.779 28.536 223.764 27.448 223.732 26.584C223.732 25.688 223.699 24.76 223.635 23.8L221.044 23.368V21.4L232.18 18.088L233.044 18.616L232.9 25.768V32.152C232.9 33.144 232.9 34.312 232.9 35.656C232.9 36.968 232.915 38.2 232.947 39.352L234.964 39.784V42.232H221.572ZM228.243 15.256C227.027 15.256 225.988 14.872 225.124 14.104C224.26 13.304 223.827 12.312 223.827 11.128C223.827 9.912 224.26 8.92 225.124 8.152C225.988 7.384 227.027 7 228.243 7C229.459 7 230.499 7.384 231.363 8.152C232.227 8.92 232.66 9.912 232.66 11.128C232.66 12.312 232.227 13.304 231.363 14.104C230.499 14.872 229.459 15.256 228.243 15.256Z"/>
<path d="M247.742 31C248.702 31 249.39 30.536 249.806 29.608C250.222 28.68 250.43 27.384 250.43 25.72C250.43 24.024 250.206 22.728 249.758 21.832C249.31 20.936 248.638 20.488 247.742 20.488C246.846 20.488 246.19 20.936 245.774 21.832C245.358 22.728 245.15 24.024 245.15 25.72C245.15 27.384 245.342 28.68 245.726 29.608C246.11 30.536 246.782 31 247.742 31ZM241.07 45.832C241.07 47.208 241.566 48.2 242.558 48.808C243.582 49.448 245.246 49.768 247.55 49.768C249.886 49.768 251.63 49.464 252.782 48.856C253.934 48.248 254.51 47.496 254.51 46.6C254.51 46.056 254.286 45.528 253.838 45.016C253.39 44.504 252.606 44.248 251.486 44.248H246.686C245.662 44.248 244.702 44.2 243.806 44.104C242.942 44.04 242.158 43.896 241.454 43.672C241.198 44.28 241.07 45 241.07 45.832ZM247.742 33.4C245.918 33.4 244.35 33.208 243.038 32.824C242.814 33.304 242.702 33.912 242.702 34.648C242.702 35.16 242.91 35.576 243.326 35.896C243.774 36.184 244.494 36.328 245.486 36.328H250.814C253.534 36.328 255.678 36.648 257.246 37.288C258.814 37.896 259.918 38.76 260.558 39.88C261.23 40.968 261.566 42.232 261.566 43.672C261.566 45.4 260.99 46.952 259.838 48.328C258.718 49.736 257.038 50.84 254.798 51.64C252.558 52.472 249.806 52.888 246.542 52.888C243.758 52.888 241.614 52.616 240.11 52.072C238.606 51.528 237.566 50.824 236.99 49.96C236.414 49.128 236.126 48.264 236.126 47.368C236.126 46.344 236.446 45.416 237.086 44.584C237.726 43.784 238.638 43.128 239.822 42.616C238.83 42.168 238.126 41.592 237.71 40.888C237.326 40.184 237.134 39.448 237.134 38.68C237.134 37.432 237.486 36.28 238.19 35.224C238.926 34.136 239.886 33.096 241.07 32.104C239.694 31.4 238.686 30.504 238.046 29.416C237.438 28.296 237.134 27.096 237.134 25.816C237.134 24.408 237.486 23.128 238.19 21.976C238.926 20.792 240.062 19.848 241.598 19.144C243.166 18.44 245.214 18.088 247.742 18.088C249.662 18.088 251.294 18.296 252.638 18.712C254.014 19.128 255.118 19.688 255.95 20.392L261.326 17.944L262.094 18.424V22.408H257.582C258.094 23.4 258.35 24.536 258.35 25.816C258.35 27.16 257.982 28.408 257.246 29.56C256.542 30.712 255.406 31.64 253.838 32.344C252.302 33.048 250.27 33.4 247.742 33.4Z"/>
<path d="M263.425 42.232V39.784L265.633 39.256C265.665 38.104 265.681 36.888 265.681 35.608C265.681 34.296 265.681 33.144 265.681 32.152V29.176C265.681 28.28 265.665 27.56 265.633 27.016C265.633 26.472 265.617 25.96 265.585 25.48C265.585 25 265.569 24.44 265.537 23.8L262.945 23.368V21.4L273.553 18.088L274.417 18.616L274.657 21.928C275.969 20.392 277.169 19.368 278.257 18.856C279.377 18.344 280.609 18.088 281.953 18.088C284.033 18.088 285.761 18.776 287.137 20.152C288.513 21.496 289.201 23.48 289.201 26.104V32.152C289.201 33.176 289.201 34.344 289.201 35.656C289.201 36.968 289.217 38.2 289.249 39.352L291.265 39.784V42.232H277.969V39.784L280.033 39.304C280.065 38.152 280.081 36.92 280.081 35.608C280.081 34.296 280.081 33.144 280.081 32.152V26.728C280.081 25.448 279.905 24.552 279.553 24.04C279.233 23.496 278.689 23.224 277.921 23.224C277.025 23.224 275.985 23.64 274.801 24.472V32.152C274.801 33.144 274.801 34.312 274.801 35.656C274.801 36.968 274.817 38.216 274.849 39.4L276.673 39.784V42.232H263.425Z"/>
</mask>
<path d="M8 20.008L8.096 10.936H37.04L37.088 20.008H32.624L31.808 13.768H27.392C27.36 15.72 27.328 17.704 27.296 19.72C27.296 21.736 27.296 23.768 27.296 25.816V27.304C27.296 29.256 27.296 31.208 27.296 33.16C27.296 35.112 27.312 37.064 27.344 39.016L31.184 39.4V42.232H13.952V39.4L17.744 39.016C17.776 37.096 17.792 35.16 17.792 33.208C17.792 31.256 17.792 29.304 17.792 27.352V25.816C17.792 23.832 17.792 21.832 17.792 19.816C17.792 17.8 17.76 15.784 17.696 13.768H13.328L12.512 20.008H8Z" fill="white"/>
<path d="M37.1574 42.232V39.784L39.4614 39.256C39.4934 38.104 39.5094 36.888 39.5094 35.608C39.5094 34.296 39.5094 33.144 39.5094 32.152V29.128C39.5094 28.232 39.4934 27.512 39.4614 26.968C39.4614 26.424 39.4454 25.928 39.4134 25.48C39.4134 25 39.3974 24.44 39.3654 23.8L36.7734 23.368V21.4L47.3814 18.088L48.2454 18.616L48.6294 24.184C49.2694 22.104 50.1814 20.568 51.3654 19.576C52.5814 18.584 53.7654 18.088 54.9174 18.088C56.1014 18.088 57.0934 18.44 57.8934 19.144C58.7254 19.816 59.2214 20.888 59.3814 22.36C59.3174 23.64 58.9334 24.648 58.2294 25.384C57.5254 26.088 56.6934 26.44 55.7334 26.44C54.2614 26.44 52.9174 25.56 51.7014 23.8L51.4614 23.464C50.8854 24.104 50.3094 24.936 49.7334 25.96C49.1894 26.984 48.8214 28.04 48.6294 29.128V32.152C48.6294 33.08 48.6294 34.168 48.6294 35.416C48.6294 36.664 48.6454 37.848 48.6774 38.968L52.4214 39.784V42.232H37.1574Z" fill="white"/>
<path d="M60.6965 42.232V39.784L62.8565 39.304C62.8885 38.12 62.9045 36.888 62.9045 35.608C62.9045 34.296 62.9045 33.144 62.9045 32.152V29.848C62.9045 28.536 62.8885 27.448 62.8565 26.584C62.8565 25.688 62.8245 24.76 62.7605 23.8L60.1685 23.368V21.4L71.3045 18.088L72.1685 18.616L72.0245 25.768V32.152C72.0245 33.144 72.0245 34.312 72.0245 35.656C72.0245 36.968 72.0405 38.2 72.0725 39.352L74.0885 39.784V42.232H60.6965ZM67.3685 15.256C66.1525 15.256 65.1125 14.872 64.2485 14.104C63.3845 13.304 62.9525 12.312 62.9525 11.128C62.9525 9.912 63.3845 8.92 64.2485 8.152C65.1125 7.384 66.1525 7 67.3685 7C68.5845 7 69.6245 7.384 70.4885 8.152C71.3525 8.92 71.7845 9.912 71.7845 11.128C71.7845 12.312 71.3525 13.304 70.4885 14.104C69.6245 14.872 68.5845 15.256 67.3685 15.256Z" fill="white"/>
<path d="M88.403 43C86.227 43 84.195 42.552 82.307 41.656C80.419 40.728 78.883 39.352 77.699 37.528C76.547 35.704 75.971 33.4 75.971 30.616C75.971 27.96 76.579 25.704 77.795 23.848C79.011 21.96 80.659 20.536 82.739 19.576C84.819 18.584 87.139 18.088 89.699 18.088C91.491 18.088 93.059 18.424 94.403 19.096C95.747 19.768 96.803 20.664 97.571 21.784C98.371 22.872 98.803 24.072 98.867 25.384C98.259 27.24 97.043 28.168 95.219 28.168C94.227 28.168 93.315 27.784 92.483 27.016C91.651 26.248 91.187 24.808 91.091 22.696L90.995 20.68H90.803C90.067 20.68 89.283 20.968 88.451 21.544C87.651 22.088 86.963 23.016 86.387 24.328C85.843 25.608 85.571 27.352 85.571 29.56C85.571 32.216 86.131 34.264 87.251 35.704C88.403 37.112 89.939 37.816 91.859 37.816C92.915 37.816 93.827 37.608 94.595 37.192C95.363 36.744 96.083 36.2 96.755 35.56L98.627 37.384C97.603 39.336 96.211 40.76 94.451 41.656C92.691 42.552 90.675 43 88.403 43Z" fill="white"/>
<path d="M112.963 20.68C112.227 20.68 111.603 21.224 111.091 22.312C110.579 23.4 110.291 25.432 110.227 28.408H112.483C113.635 28.408 114.403 28.184 114.787 27.736C115.203 27.256 115.411 26.408 115.411 25.192C115.411 23.528 115.155 22.36 114.643 21.688C114.163 21.016 113.603 20.68 112.963 20.68ZM113.107 43C110.707 43 108.563 42.504 106.675 41.512C104.819 40.52 103.347 39.096 102.259 37.24C101.171 35.352 100.627 33.096 100.627 30.472C100.627 28.392 100.995 26.584 101.731 25.048C102.467 23.512 103.459 22.232 104.707 21.208C105.955 20.152 107.347 19.368 108.883 18.856C110.419 18.344 111.971 18.088 113.539 18.088C115.843 18.088 117.747 18.568 119.251 19.528C120.787 20.456 121.939 21.72 122.707 23.32C123.475 24.888 123.859 26.648 123.859 28.6C123.859 29.112 123.843 29.56 123.811 29.944C123.779 30.296 123.715 30.696 123.619 31.144H110.275C110.531 33.48 111.219 35.176 112.339 36.232C113.491 37.288 114.771 37.816 116.179 37.816C117.395 37.816 118.435 37.608 119.299 37.192C120.195 36.744 120.979 36.2 121.651 35.56L123.523 37.384C122.499 39.336 121.091 40.76 119.299 41.656C117.539 42.552 115.475 43 113.107 43Z" fill="white"/>
<path d="M132.037 43C130.725 43 129.605 42.552 128.677 41.656C127.781 40.76 127.333 39.672 127.333 38.392C127.333 37.08 127.781 35.96 128.677 35.032C129.605 34.104 130.725 33.64 132.037 33.64C133.349 33.64 134.453 34.104 135.349 35.032C136.277 35.96 136.741 37.08 136.741 38.392C136.741 39.672 136.277 40.76 135.349 41.656C134.453 42.552 133.349 43 132.037 43Z" fill="white"/>
<path d="M153.436 27.304C153.436 29.288 153.436 31.288 153.436 33.304C153.468 35.288 153.499 37.272 153.531 39.256H154.204C156.572 39.256 158.459 38.152 159.867 35.944C161.307 33.736 162.027 30.6 162.027 26.536C162.027 22.44 161.307 19.32 159.867 17.176C158.427 15 156.524 13.912 154.156 13.912H153.531C153.499 15.864 153.468 17.832 153.436 19.816C153.436 21.8 153.436 23.8 153.436 25.816V27.304ZM140.572 13.768V10.936H154.876C158.428 10.936 161.451 11.576 163.947 12.856C166.443 14.136 168.348 15.944 169.66 18.28C170.972 20.584 171.628 23.304 171.628 26.44C171.628 29.736 170.924 32.568 169.516 34.936C168.108 37.272 166.091 39.08 163.467 40.36C160.843 41.608 157.707 42.232 154.059 42.232H140.572V39.4L143.883 39.064C143.915 37.144 143.932 35.208 143.932 33.256C143.932 31.272 143.932 29.304 143.932 27.352V25.816C143.932 23.864 143.932 21.912 143.932 19.96C143.932 18.008 143.915 16.056 143.883 14.104L140.572 13.768Z" fill="white"/>
<path d="M186.37 20.68C185.634 20.68 185.009 21.224 184.497 22.312C183.985 23.4 183.697 25.432 183.633 28.408H185.889C187.041 28.408 187.809 28.184 188.193 27.736C188.609 27.256 188.818 26.408 188.818 25.192C188.818 23.528 188.561 22.36 188.049 21.688C187.569 21.016 187.01 20.68 186.37 20.68ZM186.514 43C184.114 43 181.969 42.504 180.081 41.512C178.225 40.52 176.753 39.096 175.665 37.24C174.577 35.352 174.033 33.096 174.033 30.472C174.033 28.392 174.401 26.584 175.137 25.048C175.873 23.512 176.865 22.232 178.113 21.208C179.361 20.152 180.754 19.368 182.29 18.856C183.826 18.344 185.377 18.088 186.945 18.088C189.249 18.088 191.154 18.568 192.658 19.528C194.194 20.456 195.345 21.72 196.113 23.32C196.881 24.888 197.266 26.648 197.266 28.6C197.266 29.112 197.25 29.56 197.217 29.944C197.185 30.296 197.121 30.696 197.025 31.144H183.682C183.938 33.48 184.625 35.176 185.745 36.232C186.897 37.288 188.177 37.816 189.585 37.816C190.801 37.816 191.842 37.608 192.706 37.192C193.602 36.744 194.385 36.2 195.057 35.56L196.93 37.384C195.906 39.336 194.498 40.76 192.706 41.656C190.946 42.552 188.882 43 186.514 43Z" fill="white"/>
<path d="M208.131 43C204.803 43 201.859 42.216 199.299 40.648L199.539 34.504H203.907L204.675 39.496C205.219 39.72 205.779 39.896 206.355 40.024C206.931 40.12 207.523 40.168 208.131 40.168C209.347 40.168 210.291 39.976 210.963 39.592C211.635 39.208 211.971 38.568 211.971 37.672C211.971 37.032 211.715 36.456 211.203 35.944C210.723 35.432 209.683 34.968 208.083 34.552L205.347 33.832C203.459 33.32 202.019 32.424 201.027 31.144C200.035 29.832 199.539 28.248 199.539 26.392C199.539 23.992 200.451 22.008 202.275 20.44C204.131 18.872 206.787 18.088 210.243 18.088C211.715 18.088 213.075 18.248 214.323 18.568C215.603 18.888 216.899 19.368 218.211 20.008L217.827 25.432H213.411L212.355 21.16C212.035 21.096 211.683 21.048 211.299 21.016C210.947 20.952 210.515 20.92 210.003 20.92C209.107 20.92 208.339 21.128 207.699 21.544C207.091 21.928 206.787 22.536 206.787 23.368C206.787 23.88 207.011 24.376 207.459 24.856C207.907 25.336 208.963 25.8 210.627 26.248L213.315 26.968C215.555 27.576 217.155 28.52 218.115 29.8C219.107 31.08 219.603 32.664 219.603 34.552C219.603 37.368 218.563 39.48 216.483 40.888C214.435 42.296 211.651 43 208.131 43Z" fill="white"/>
<path d="M221.572 42.232V39.784L223.732 39.304C223.764 38.12 223.779 36.888 223.779 35.608C223.779 34.296 223.779 33.144 223.779 32.152V29.848C223.779 28.536 223.764 27.448 223.732 26.584C223.732 25.688 223.699 24.76 223.635 23.8L221.044 23.368V21.4L232.18 18.088L233.044 18.616L232.9 25.768V32.152C232.9 33.144 232.9 34.312 232.9 35.656C232.9 36.968 232.915 38.2 232.947 39.352L234.964 39.784V42.232H221.572ZM228.243 15.256C227.027 15.256 225.988 14.872 225.124 14.104C224.26 13.304 223.827 12.312 223.827 11.128C223.827 9.912 224.26 8.92 225.124 8.152C225.988 7.384 227.027 7 228.243 7C229.459 7 230.499 7.384 231.363 8.152C232.227 8.92 232.66 9.912 232.66 11.128C232.66 12.312 232.227 13.304 231.363 14.104C230.499 14.872 229.459 15.256 228.243 15.256Z" fill="white"/>
<path d="M247.742 31C248.702 31 249.39 30.536 249.806 29.608C250.222 28.68 250.43 27.384 250.43 25.72C250.43 24.024 250.206 22.728 249.758 21.832C249.31 20.936 248.638 20.488 247.742 20.488C246.846 20.488 246.19 20.936 245.774 21.832C245.358 22.728 245.15 24.024 245.15 25.72C245.15 27.384 245.342 28.68 245.726 29.608C246.11 30.536 246.782 31 247.742 31ZM241.07 45.832C241.07 47.208 241.566 48.2 242.558 48.808C243.582 49.448 245.246 49.768 247.55 49.768C249.886 49.768 251.63 49.464 252.782 48.856C253.934 48.248 254.51 47.496 254.51 46.6C254.51 46.056 254.286 45.528 253.838 45.016C253.39 44.504 252.606 44.248 251.486 44.248H246.686C245.662 44.248 244.702 44.2 243.806 44.104C242.942 44.04 242.158 43.896 241.454 43.672C241.198 44.28 241.07 45 241.07 45.832ZM247.742 33.4C245.918 33.4 244.35 33.208 243.038 32.824C242.814 33.304 242.702 33.912 242.702 34.648C242.702 35.16 242.91 35.576 243.326 35.896C243.774 36.184 244.494 36.328 245.486 36.328H250.814C253.534 36.328 255.678 36.648 257.246 37.288C258.814 37.896 259.918 38.76 260.558 39.88C261.23 40.968 261.566 42.232 261.566 43.672C261.566 45.4 260.99 46.952 259.838 48.328C258.718 49.736 257.038 50.84 254.798 51.64C252.558 52.472 249.806 52.888 246.542 52.888C243.758 52.888 241.614 52.616 240.11 52.072C238.606 51.528 237.566 50.824 236.99 49.96C236.414 49.128 236.126 48.264 236.126 47.368C236.126 46.344 236.446 45.416 237.086 44.584C237.726 43.784 238.638 43.128 239.822 42.616C238.83 42.168 238.126 41.592 237.71 40.888C237.326 40.184 237.134 39.448 237.134 38.68C237.134 37.432 237.486 36.28 238.19 35.224C238.926 34.136 239.886 33.096 241.07 32.104C239.694 31.4 238.686 30.504 238.046 29.416C237.438 28.296 237.134 27.096 237.134 25.816C237.134 24.408 237.486 23.128 238.19 21.976C238.926 20.792 240.062 19.848 241.598 19.144C243.166 18.44 245.214 18.088 247.742 18.088C249.662 18.088 251.294 18.296 252.638 18.712C254.014 19.128 255.118 19.688 255.95 20.392L261.326 17.944L262.094 18.424V22.408H257.582C258.094 23.4 258.35 24.536 258.35 25.816C258.35 27.16 257.982 28.408 257.246 29.56C256.542 30.712 255.406 31.64 253.838 32.344C252.302 33.048 250.27 33.4 247.742 33.4Z" fill="white"/>
<path d="M263.425 42.232V39.784L265.633 39.256C265.665 38.104 265.681 36.888 265.681 35.608C265.681 34.296 265.681 33.144 265.681 32.152V29.176C265.681 28.28 265.665 27.56 265.633 27.016C265.633 26.472 265.617 25.96 265.585 25.48C265.585 25 265.569 24.44 265.537 23.8L262.945 23.368V21.4L273.553 18.088L274.417 18.616L274.657 21.928C275.969 20.392 277.169 19.368 278.257 18.856C279.377 18.344 280.609 18.088 281.953 18.088C284.033 18.088 285.761 18.776 287.137 20.152C288.513 21.496 289.201 23.48 289.201 26.104V32.152C289.201 33.176 289.201 34.344 289.201 35.656C289.201 36.968 289.217 38.2 289.249 39.352L291.265 39.784V42.232H277.969V39.784L280.033 39.304C280.065 38.152 280.081 36.92 280.081 35.608C280.081 34.296 280.081 33.144 280.081 32.152V26.728C280.081 25.448 279.905 24.552 279.553 24.04C279.233 23.496 278.689 23.224 277.921 23.224C277.025 23.224 275.985 23.64 274.801 24.472V32.152C274.801 33.144 274.801 34.312 274.801 35.656C274.801 36.968 274.817 38.216 274.849 39.4L276.673 39.784V42.232H263.425Z" fill="white"/>
<path d="M8 20.008L8.096 10.936H37.04L37.088 20.008H32.624L31.808 13.768H27.392C27.36 15.72 27.328 17.704 27.296 19.72C27.296 21.736 27.296 23.768 27.296 25.816V27.304C27.296 29.256 27.296 31.208 27.296 33.16C27.296 35.112 27.312 37.064 27.344 39.016L31.184 39.4V42.232H13.952V39.4L17.744 39.016C17.776 37.096 17.792 35.16 17.792 33.208C17.792 31.256 17.792 29.304 17.792 27.352V25.816C17.792 23.832 17.792 21.832 17.792 19.816C17.792 17.8 17.76 15.784 17.696 13.768H13.328L12.512 20.008H8Z" stroke="black" stroke-width="4" mask="url(#path-1-outside-1_103_1825)"/>
<path d="M37.1574 42.232V39.784L39.4614 39.256C39.4934 38.104 39.5094 36.888 39.5094 35.608C39.5094 34.296 39.5094 33.144 39.5094 32.152V29.128C39.5094 28.232 39.4934 27.512 39.4614 26.968C39.4614 26.424 39.4454 25.928 39.4134 25.48C39.4134 25 39.3974 24.44 39.3654 23.8L36.7734 23.368V21.4L47.3814 18.088L48.2454 18.616L48.6294 24.184C49.2694 22.104 50.1814 20.568 51.3654 19.576C52.5814 18.584 53.7654 18.088 54.9174 18.088C56.1014 18.088 57.0934 18.44 57.8934 19.144C58.7254 19.816 59.2214 20.888 59.3814 22.36C59.3174 23.64 58.9334 24.648 58.2294 25.384C57.5254 26.088 56.6934 26.44 55.7334 26.44C54.2614 26.44 52.9174 25.56 51.7014 23.8L51.4614 23.464C50.8854 24.104 50.3094 24.936 49.7334 25.96C49.1894 26.984 48.8214 28.04 48.6294 29.128V32.152C48.6294 33.08 48.6294 34.168 48.6294 35.416C48.6294 36.664 48.6454 37.848 48.6774 38.968L52.4214 39.784V42.232H37.1574Z" stroke="black" stroke-width="4" mask="url(#path-1-outside-1_103_1825)"/>
<path d="M60.6965 42.232V39.784L62.8565 39.304C62.8885 38.12 62.9045 36.888 62.9045 35.608C62.9045 34.296 62.9045 33.144 62.9045 32.152V29.848C62.9045 28.536 62.8885 27.448 62.8565 26.584C62.8565 25.688 62.8245 24.76 62.7605 23.8L60.1685 23.368V21.4L71.3045 18.088L72.1685 18.616L72.0245 25.768V32.152C72.0245 33.144 72.0245 34.312 72.0245 35.656C72.0245 36.968 72.0405 38.2 72.0725 39.352L74.0885 39.784V42.232H60.6965ZM67.3685 15.256C66.1525 15.256 65.1125 14.872 64.2485 14.104C63.3845 13.304 62.9525 12.312 62.9525 11.128C62.9525 9.912 63.3845 8.92 64.2485 8.152C65.1125 7.384 66.1525 7 67.3685 7C68.5845 7 69.6245 7.384 70.4885 8.152C71.3525 8.92 71.7845 9.912 71.7845 11.128C71.7845 12.312 71.3525 13.304 70.4885 14.104C69.6245 14.872 68.5845 15.256 67.3685 15.256Z" stroke="black" stroke-width="4" mask="url(#path-1-outside-1_103_1825)"/>
<path d="M88.403 43C86.227 43 84.195 42.552 82.307 41.656C80.419 40.728 78.883 39.352 77.699 37.528C76.547 35.704 75.971 33.4 75.971 30.616C75.971 27.96 76.579 25.704 77.795 23.848C79.011 21.96 80.659 20.536 82.739 19.576C84.819 18.584 87.139 18.088 89.699 18.088C91.491 18.088 93.059 18.424 94.403 19.096C95.747 19.768 96.803 20.664 97.571 21.784C98.371 22.872 98.803 24.072 98.867 25.384C98.259 27.24 97.043 28.168 95.219 28.168C94.227 28.168 93.315 27.784 92.483 27.016C91.651 26.248 91.187 24.808 91.091 22.696L90.995 20.68H90.803C90.067 20.68 89.283 20.968 88.451 21.544C87.651 22.088 86.963 23.016 86.387 24.328C85.843 25.608 85.571 27.352 85.571 29.56C85.571 32.216 86.131 34.264 87.251 35.704C88.403 37.112 89.939 37.816 91.859 37.816C92.915 37.816 93.827 37.608 94.595 37.192C95.363 36.744 96.083 36.2 96.755 35.56L98.627 37.384C97.603 39.336 96.211 40.76 94.451 41.656C92.691 42.552 90.675 43 88.403 43Z" stroke="black" stroke-width="4" mask="url(#path-1-outside-1_103_1825)"/>
<path d="M112.963 20.68C112.227 20.68 111.603 21.224 111.091 22.312C110.579 23.4 110.291 25.432 110.227 28.408H112.483C113.635 28.408 114.403 28.184 114.787 27.736C115.203 27.256 115.411 26.408 115.411 25.192C115.411 23.528 115.155 22.36 114.643 21.688C114.163 21.016 113.603 20.68 112.963 20.68ZM113.107 43C110.707 43 108.563 42.504 106.675 41.512C104.819 40.52 103.347 39.096 102.259 37.24C101.171 35.352 100.627 33.096 100.627 30.472C100.627 28.392 100.995 26.584 101.731 25.048C102.467 23.512 103.459 22.232 104.707 21.208C105.955 20.152 107.347 19.368 108.883 18.856C110.419 18.344 111.971 18.088 113.539 18.088C115.843 18.088 117.747 18.568 119.251 19.528C120.787 20.456 121.939 21.72 122.707 23.32C123.475 24.888 123.859 26.648 123.859 28.6C123.859 29.112 123.843 29.56 123.811 29.944C123.779 30.296 123.715 30.696 123.619 31.144H110.275C110.531 33.48 111.219 35.176 112.339 36.232C113.491 37.288 114.771 37.816 116.179 37.816C117.395 37.816 118.435 37.608 119.299 37.192C120.195 36.744 120.979 36.2 121.651 35.56L123.523 37.384C122.499 39.336 121.091 40.76 119.299 41.656C117.539 42.552 115.475 43 113.107 43Z" stroke="black" stroke-width="4" mask="url(#path-1-outside-1_103_1825)"/>
<path d="M132.037 43C130.725 43 129.605 42.552 128.677 41.656C127.781 40.76 127.333 39.672 127.333 38.392C127.333 37.08 127.781 35.96 128.677 35.032C129.605 34.104 130.725 33.64 132.037 33.64C133.349 33.64 134.453 34.104 135.349 35.032C136.277 35.96 136.741 37.08 136.741 38.392C136.741 39.672 136.277 40.76 135.349 41.656C134.453 42.552 133.349 43 132.037 43Z" stroke="black" stroke-width="4" mask="url(#path-1-outside-1_103_1825)"/>
<path d="M153.436 27.304C153.436 29.288 153.436 31.288 153.436 33.304C153.468 35.288 153.499 37.272 153.531 39.256H154.204C156.572 39.256 158.459 38.152 159.867 35.944C161.307 33.736 162.027 30.6 162.027 26.536C162.027 22.44 161.307 19.32 159.867 17.176C158.427 15 156.524 13.912 154.156 13.912H153.531C153.499 15.864 153.468 17.832 153.436 19.816C153.436 21.8 153.436 23.8 153.436 25.816V27.304ZM140.572 13.768V10.936H154.876C158.428 10.936 161.451 11.576 163.947 12.856C166.443 14.136 168.348 15.944 169.66 18.28C170.972 20.584 171.628 23.304 171.628 26.44C171.628 29.736 170.924 32.568 169.516 34.936C168.108 37.272 166.091 39.08 163.467 40.36C160.843 41.608 157.707 42.232 154.059 42.232H140.572V39.4L143.883 39.064C143.915 37.144 143.932 35.208 143.932 33.256C143.932 31.272 143.932 29.304 143.932 27.352V25.816C143.932 23.864 143.932 21.912 143.932 19.96C143.932 18.008 143.915 16.056 143.883 14.104L140.572 13.768Z" stroke="black" stroke-width="4" mask="url(#path-1-outside-1_103_1825)"/>
<path d="M186.37 20.68C185.634 20.68 185.009 21.224 184.497 22.312C183.985 23.4 183.697 25.432 183.633 28.408H185.889C187.041 28.408 187.809 28.184 188.193 27.736C188.609 27.256 188.818 26.408 188.818 25.192C188.818 23.528 188.561 22.36 188.049 21.688C187.569 21.016 187.01 20.68 186.37 20.68ZM186.514 43C184.114 43 181.969 42.504 180.081 41.512C178.225 40.52 176.753 39.096 175.665 37.24C174.577 35.352 174.033 33.096 174.033 30.472C174.033 28.392 174.401 26.584 175.137 25.048C175.873 23.512 176.865 22.232 178.113 21.208C179.361 20.152 180.754 19.368 182.29 18.856C183.826 18.344 185.377 18.088 186.945 18.088C189.249 18.088 191.154 18.568 192.658 19.528C194.194 20.456 195.345 21.72 196.113 23.32C196.881 24.888 197.266 26.648 197.266 28.6C197.266 29.112 197.25 29.56 197.217 29.944C197.185 30.296 197.121 30.696 197.025 31.144H183.682C183.938 33.48 184.625 35.176 185.745 36.232C186.897 37.288 188.177 37.816 189.585 37.816C190.801 37.816 191.842 37.608 192.706 37.192C193.602 36.744 194.385 36.2 195.057 35.56L196.93 37.384C195.906 39.336 194.498 40.76 192.706 41.656C190.946 42.552 188.882 43 186.514 43Z" stroke="black" stroke-width="4" mask="url(#path-1-outside-1_103_1825)"/>
<path d="M208.131 43C204.803 43 201.859 42.216 199.299 40.648L199.539 34.504H203.907L204.675 39.496C205.219 39.72 205.779 39.896 206.355 40.024C206.931 40.12 207.523 40.168 208.131 40.168C209.347 40.168 210.291 39.976 210.963 39.592C211.635 39.208 211.971 38.568 211.971 37.672C211.971 37.032 211.715 36.456 211.203 35.944C210.723 35.432 209.683 34.968 208.083 34.552L205.347 33.832C203.459 33.32 202.019 32.424 201.027 31.144C200.035 29.832 199.539 28.248 199.539 26.392C199.539 23.992 200.451 22.008 202.275 20.44C204.131 18.872 206.787 18.088 210.243 18.088C211.715 18.088 213.075 18.248 214.323 18.568C215.603 18.888 216.899 19.368 218.211 20.008L217.827 25.432H213.411L212.355 21.16C212.035 21.096 211.683 21.048 211.299 21.016C210.947 20.952 210.515 20.92 210.003 20.92C209.107 20.92 208.339 21.128 207.699 21.544C207.091 21.928 206.787 22.536 206.787 23.368C206.787 23.88 207.011 24.376 207.459 24.856C207.907 25.336 208.963 25.8 210.627 26.248L213.315 26.968C215.555 27.576 217.155 28.52 218.115 29.8C219.107 31.08 219.603 32.664 219.603 34.552C219.603 37.368 218.563 39.48 216.483 40.888C214.435 42.296 211.651 43 208.131 43Z" stroke="black" stroke-width="4" mask="url(#path-1-outside-1_103_1825)"/>
<path d="M221.572 42.232V39.784L223.732 39.304C223.764 38.12 223.779 36.888 223.779 35.608C223.779 34.296 223.779 33.144 223.779 32.152V29.848C223.779 28.536 223.764 27.448 223.732 26.584C223.732 25.688 223.699 24.76 223.635 23.8L221.044 23.368V21.4L232.18 18.088L233.044 18.616L232.9 25.768V32.152C232.9 33.144 232.9 34.312 232.9 35.656C232.9 36.968 232.915 38.2 232.947 39.352L234.964 39.784V42.232H221.572ZM228.243 15.256C227.027 15.256 225.988 14.872 225.124 14.104C224.26 13.304 223.827 12.312 223.827 11.128C223.827 9.912 224.26 8.92 225.124 8.152C225.988 7.384 227.027 7 228.243 7C229.459 7 230.499 7.384 231.363 8.152C232.227 8.92 232.66 9.912 232.66 11.128C232.66 12.312 232.227 13.304 231.363 14.104C230.499 14.872 229.459 15.256 228.243 15.256Z" stroke="black" stroke-width="4" mask="url(#path-1-outside-1_103_1825)"/>
<path d="M247.742 31C248.702 31 249.39 30.536 249.806 29.608C250.222 28.68 250.43 27.384 250.43 25.72C250.43 24.024 250.206 22.728 249.758 21.832C249.31 20.936 248.638 20.488 247.742 20.488C246.846 20.488 246.19 20.936 245.774 21.832C245.358 22.728 245.15 24.024 245.15 25.72C245.15 27.384 245.342 28.68 245.726 29.608C246.11 30.536 246.782 31 247.742 31ZM241.07 45.832C241.07 47.208 241.566 48.2 242.558 48.808C243.582 49.448 245.246 49.768 247.55 49.768C249.886 49.768 251.63 49.464 252.782 48.856C253.934 48.248 254.51 47.496 254.51 46.6C254.51 46.056 254.286 45.528 253.838 45.016C253.39 44.504 252.606 44.248 251.486 44.248H246.686C245.662 44.248 244.702 44.2 243.806 44.104C242.942 44.04 242.158 43.896 241.454 43.672C241.198 44.28 241.07 45 241.07 45.832ZM247.742 33.4C245.918 33.4 244.35 33.208 243.038 32.824C242.814 33.304 242.702 33.912 242.702 34.648C242.702 35.16 242.91 35.576 243.326 35.896C243.774 36.184 244.494 36.328 245.486 36.328H250.814C253.534 36.328 255.678 36.648 257.246 37.288C258.814 37.896 259.918 38.76 260.558 39.88C261.23 40.968 261.566 42.232 261.566 43.672C261.566 45.4 260.99 46.952 259.838 48.328C258.718 49.736 257.038 50.84 254.798 51.64C252.558 52.472 249.806 52.888 246.542 52.888C243.758 52.888 241.614 52.616 240.11 52.072C238.606 51.528 237.566 50.824 236.99 49.96C236.414 49.128 236.126 48.264 236.126 47.368C236.126 46.344 236.446 45.416 237.086 44.584C237.726 43.784 238.638 43.128 239.822 42.616C238.83 42.168 238.126 41.592 237.71 40.888C237.326 40.184 237.134 39.448 237.134 38.68C237.134 37.432 237.486 36.28 238.19 35.224C238.926 34.136 239.886 33.096 241.07 32.104C239.694 31.4 238.686 30.504 238.046 29.416C237.438 28.296 237.134 27.096 237.134 25.816C237.134 24.408 237.486 23.128 238.19 21.976C238.926 20.792 240.062 19.848 241.598 19.144C243.166 18.44 245.214 18.088 247.742 18.088C249.662 18.088 251.294 18.296 252.638 18.712C254.014 19.128 255.118 19.688 255.95 20.392L261.326 17.944L262.094 18.424V22.408H257.582C258.094 23.4 258.35 24.536 258.35 25.816C258.35 27.16 257.982 28.408 257.246 29.56C256.542 30.712 255.406 31.64 253.838 32.344C252.302 33.048 250.27 33.4 247.742 33.4Z" stroke="black" stroke-width="4" mask="url(#path-1-outside-1_103_1825)"/>
<path d="M263.425 42.232V39.784L265.633 39.256C265.665 38.104 265.681 36.888 265.681 35.608C265.681 34.296 265.681 33.144 265.681 32.152V29.176C265.681 28.28 265.665 27.56 265.633 27.016C265.633 26.472 265.617 25.96 265.585 25.48C265.585 25 265.569 24.44 265.537 23.8L262.945 23.368V21.4L273.553 18.088L274.417 18.616L274.657 21.928C275.969 20.392 277.169 19.368 278.257 18.856C279.377 18.344 280.609 18.088 281.953 18.088C284.033 18.088 285.761 18.776 287.137 20.152C288.513 21.496 289.201 23.48 289.201 26.104V32.152C289.201 33.176 289.201 34.344 289.201 35.656C289.201 36.968 289.217 38.2 289.249 39.352L291.265 39.784V42.232H277.969V39.784L280.033 39.304C280.065 38.152 280.081 36.92 280.081 35.608C280.081 34.296 280.081 33.144 280.081 32.152V26.728C280.081 25.448 279.905 24.552 279.553 24.04C279.233 23.496 278.689 23.224 277.921 23.224C277.025 23.224 275.985 23.64 274.801 24.472V32.152C274.801 33.144 274.801 34.312 274.801 35.656C274.801 36.968 274.817 38.216 274.849 39.4L276.673 39.784V42.232H263.425Z" stroke="black" stroke-width="4" mask="url(#path-1-outside-1_103_1825)"/>
</g>
<defs>
<filter id="filter0_d_103_1825" x="2.97852" y="5" width="290.287" height="52.8887" filterUnits="userSpaceOnUse" color-interpolation-filters="sRGB">
<feFlood flood-opacity="0" result="BackgroundImageFix"/>
<feColorMatrix in="SourceAlpha" type="matrix" values="0 0 0 0 0 0 0 0 0 0 0 0 0 0 0 0 0 0 127 0" result="hardAlpha"/>
<feOffset dx="-3" dy="3"/>
<feComposite in2="hardAlpha" operator="out"/>
<feColorMatrix type="matrix" values="0 0 0 0 0 0 0 0 0 0 0 0 0 0 0 0 0 0 1 0"/>
<feBlend mode="normal" in2="BackgroundImageFix" result="effect1_dropShadow_103_1825"/>
<feBlend mode="normal" in="SourceGraphic" in2="effect1_dropShadow_103_1825" result="shape"/>
</filter>
</defs>
</svg>
