<svg width="1923" height="49" viewBox="0 0 1923 49" fill="none" xmlns="http://www.w3.org/2000/svg">
<path d="M1923 49V0C1913.99 0 1907.76 2.74328 1902.27 6.00909C1902.14 6.13973 1901.88 6.27036 1901.75 6.27036C1900.7 6.79289 1899.79 7.44605 1898.87 7.96858C1898.74 8.09921 1898.48 8.22985 1898.35 8.22985C1892.47 11.7569 1886.33 15.0227 1876.67 15.0227C1855.76 15.0227 1851.58 0 1830.68 0C1826.11 0 1822.32 0.783794 1819.06 1.82885C1817.75 2.22075 1816.44 2.74328 1815.27 3.39644C1814.75 3.65771 1814.22 3.91898 1813.7 4.18024C1812.26 4.96404 1810.83 5.74783 1809.52 6.53162C1809.13 6.79289 1808.74 7.05415 1808.21 7.31542C1807.95 7.44605 1807.56 7.70732 1807.3 7.83795C1801.16 11.4957 1794.89 15.1534 1784.7 15.1534C1763.8 15.1534 1759.62 0.130633 1738.72 0.130633C1717.82 0.130633 1713.64 15.1534 1692.74 15.1534C1671.83 15.1534 1667.65 0.130633 1646.88 0.130633C1646.88 0.130633 1646.88 0.130633 1646.75 0.130633C1646.75 0.130633 1646.75 0.130633 1646.62 0.130633C1625.85 0.261265 1621.67 15.1534 1600.77 15.1534C1579.87 15.1534 1575.69 0.130633 1554.79 0.130633C1533.89 0.130633 1529.71 15.1534 1508.67 15.1534C1487.77 15.1534 1483.59 0.130633 1462.69 0.130633C1441.79 0.130633 1437.61 15.1534 1416.71 15.1534C1398.94 15.1534 1393.2 4.18024 1378.96 1.04506C1377.52 0.653161 1375.95 0.391898 1374.25 0.261266V0C1373.6 0 1373.08 0 1372.42 0C1371.9 0 1371.25 0 1370.6 0V0.130633C1370.07 0.130633 1369.55 0.261266 1368.9 0.261266C1368.24 0.261266 1367.85 0.391897 1367.33 0.522529C1365.24 0.914427 1363.41 1.43696 1361.71 2.09012C1361.32 2.22075 1360.8 2.35138 1360.41 2.61265C1349.83 6.92352 1343.56 15.0227 1328.14 15.0227C1307.24 15.0227 1303.06 0 1282.16 0C1261.26 0 1257.08 15.0227 1236.04 15.0227C1215.14 15.0227 1210.96 0 1190.06 0C1169.16 0 1164.98 15.0227 1144.08 15.0227C1123.18 15.0227 1119 0 1098.23 0C1098.23 0 1098.23 0 1098.1 0C1098.1 0 1098.1 0 1097.97 0C1077.2 0.130632 1073.02 15.0227 1052.11 15.0227C1031.21 15.0227 1027.03 0 1006.13 0C985.23 0 981.05 15.0227 960.018 15.0227C939.117 15.0227 934.937 0 914.035 0C893.134 0 888.954 15.0227 868.053 15.0227C847.805 15.0227 843.233 0.914427 823.899 0C823.638 0 823.246 0 822.985 0C822.723 0 822.332 0 822.07 0C802.737 0.914427 798.164 15.0227 777.916 15.0227C757.015 15.0227 752.835 0 731.934 0C711.033 0 706.852 15.0227 685.82 15.0227C664.919 15.0227 660.739 0 639.838 0C618.937 0 614.756 15.0227 593.855 15.0227C572.954 15.0227 568.774 0 548.003 0C548.003 0 548.003 0 547.873 0C547.742 0 547.873 0 547.742 0C526.971 0.130632 522.791 15.0227 501.89 15.0227C480.205 15.0227 476.025 0 455.124 0C434.222 0 430.042 15.0227 409.141 15.0227C388.24 15.0227 384.059 0 363.158 0C342.257 0 338.077 15.0227 317.176 15.0227C298.103 15.0227 293.009 2.61265 276.418 0.261266V0C275.504 0 274.589 4.91738e-07 273.806 0.130633C272.891 0.130633 272.107 0 271.193 0V0.391896C254.733 2.61265 249.508 15.1534 230.436 15.1534C209.534 15.1534 205.354 0.130633 184.453 0.130633C163.552 0.130633 159.372 15.1534 138.34 15.1534C117.439 15.1534 113.258 0.130633 92.3572 0.130633C71.456 0.130633 67.2757 15.1534 46.3745 15.1534C34.6176 15.1534 28.2166 10.4506 21.1625 6.27036C21.0318 6.13973 20.9012 6.13973 20.7706 6.00909C14.8921 2.74328 9.01364 0 0 0V49H1923Z" fill="black"/>
</svg>
