<svg xmlns="http://www.w3.org/2000/svg" width="800" height="800" fill="none">
  <g fill="#F39" filter="url(#a)">
    <path d="m370.596 267.088-40.986 10.929V595.01c0 21.782-4.431 39.014-12.185 51.4-7.755 12.385-17.17 20.055-27.694 22.862l-61.479 16.394c-11.631 3.102-21.047.454-28.801-7.797-7.754-8.25-11.078-23.414-11.078-45.196V315.68l-40.986 10.93c-9.969 2.659-18.277 2.581-25.478-1.231-7.2-3.812-10.523-9.805-10.523-18.976 0-10.318 2.769-19.082 8.862-27.585 6.092-8.504 14.954-14.306 26.585-17.408l224.317-59.817c11.077-2.954 19.939-1.878 26.032 3.376 6.092 5.254 9.415 12.393 9.415 22.711 0 9.171-3.877 17.084-11.077 24.736-7.2 7.652-15.508 12.161-24.924 14.672ZM703.158 262.668v232.729c0 21.782-4.431 39.014-12.185 51.4-7.754 12.386-17.17 20.055-27.693 22.862l-200.501 53.466c-11.631 3.102-21.047 2.174-28.247-3.358-7.754-4.811-11.077-17.109-11.077-36.599v-345.08c0-17.197 2.769-29.973 9.415-39.77 6.647-9.798 14.955-16.026 26.032-20.126l150.652-40.174c3.324-.886 7.754.798 13.847 4.906 5.539 4.255 12.185 9.935 19.385 17.186 6.647 7.399 13.847 15.224 21.047 24.768 7.201 9.545 13.847 18.664 19.386 28.078 5.538 9.987 10.523 18.976 14.4 27.687 3.324 8.859 5.539 16.293 5.539 22.025Zm-95.265 137.756V273.168c-4.985-10.708-11.078-20.548-17.724-30.24-6.646-9.119-15.508-17.074-25.478-24.733v193.749l43.202-11.52Z"/>
  </g>
  <defs>
    <filter id="a" width="656.885" height="581.692" x="46.274" y="105.232" color-interpolation-filters="sRGB" filterUnits="userSpaceOnUse">
      <feFlood flood-opacity="0" result="BackgroundImageFix"/>
      <feColorMatrix in="SourceAlpha" result="hardAlpha" values="0 0 0 0 0 0 0 0 0 0 0 0 0 0 0 0 0 0 127 0"/>
      <feOffset dx="-65.112" dy="-32.556"/>
      <feComposite in2="hardAlpha" operator="out"/>
      <feColorMatrix values="0 0 0 0 0 0 0 0 0 0 0 0 0 0 0 0 0 0 1 0"/>
      <feBlend in2="BackgroundImageFix" result="effect1_dropShadow_364_7116"/>
      <feBlend in="SourceGraphic" in2="effect1_dropShadow_364_7116" result="shape"/>
    </filter>
  </defs>
</svg>
