<svg xmlns="http://www.w3.org/2000/svg" viewBox="0 0 20 20" width="20px">
    <defs>
      <style>
        .cls-1 {
          fill-rule: evenodd;
        }
      </style>
    </defs>
    <g>
      <path class="cls-1" d="M9.95,0C4.45,0-.05,4.5-.05,10s4.5,10,10,10,10-4.5,10-10S15.45,0,9.95,0ZM9.98,1.3c2.3,0,4.37,1,5.87,2.5-1.2,1.3-2.6,2.3-4.2,3-1.1-1.9-2.5-3.6-4.5-5,.9-.3,1.8-.5,2.8-.5h.03ZM5.75,2.5h0c1.9,1.3,3.4,2.9,4.5,4.8-1.8.6-3.9.9-6,.9s-1.6,0-2.7-.3c.6-2.3,2.1-4.3,4.1-5.5l.1.1ZM1.35,10v-.6c1.1.3,1.6.3,2.9.3,2.4,0,4.6-.3,6.7-1.1.4.8.6,1.6.9,2.4-3,.9-5.4,2.8-7.4,5.5-1.9-1.6-3.1-3.9-3.1-6.5h0ZM12.25,18.3c-.7.2-1.5.3-2.3.3-1.6,0-3.1-.4-4.4-1.2,1.4-1.9,3-3.3,4.9-4.3.5-.3,1.1-.5,1.6-.7.2,1.1.3,2.3.3,3.6s.1,1.5-.1,2.3h0ZM12.25,8.1c1.7-.8,3.2-1.8,4.6-3.2,1.1,1.4,1.7,3.2,1.7,5.1v.3h-1.4c-1.4,0-2.7.1-4,.4-.2-.9-.5-1.8-.9-2.6ZM13.75,17.7v-1.6c0-1.4-.1-2.8-.3-4,1.2-.3,2.4-.4,3.7-.4s.8,0,1.2,0c-.5,2.6-2.3,4.8-4.6,6Z"></path>
    </g>
  </svg>