<svg xmlns="http://www.w3.org/2000/svg" viewBox="0 0 20 20" width="20px">
    <path d="M15.1,1.5c1.93,0,3.5,1.57,3.5,3.5v10c0,1.93-1.57,3.5-3.5,3.5H5c-1.93,0-3.5-1.57-3.5-3.5V5c0-1.93,1.57-3.5,3.5-3.5h10.1M15.1,0H5C2.24,0,0,2.24,0,5v10C0,17.76,2.24,20,5,20h10.1c2.76,0,5-2.24,5-5V5c0-2.76-2.24-5-5-5h0Z"></path>
    <path d="M6.6,7.75h-2.6v8.4h2.6V7.75Z"></path>
    <path d="M12.4,9.85c-1.4,0-1.6,1.1-1.6,2.2v4.2h-2.6V7.75h2.5v1.2h0c.4-.7,1.2-1.4,2.5-1.4,2.7,0,3.1,1.7,3.1,4v4.6h-2.6v-4.1c0-1,0-2.2-1.4-2.2h.1Z"></path>
    <path d="M7,5.35c0,.9-.7,1.6-1.6,1.6s-1.6-.7-1.6-1.6.7-1.6,1.6-1.6,1.6.7,1.6,1.6Z"></path>
  </svg>